<svg width="836" height="1360" xmlns="http://www.w3.org/2000/svg" xmlns:xlink="http://www.w3.org/1999/xlink" xml:space="preserve" overflow="hidden"><defs><clipPath id="clip0"><rect x="1499" y="735" width="836" height="1360"/></clipPath></defs><g clip-path="url(#clip0)" transform="translate(-1499 -735)"><path d="M1736 1359.5 2098.36 1359.5 2098.36 972 2335 1359.5 2098.36 1747 2098.36 1359.5 1736 1359.5Z" fill="#ED7D31" fill-rule="evenodd"/><path d="M1964.03 1126 1964.03 1620.08 1939.97 1620.08 1939.97 1126ZM1915.91 1126 1952 1089.91 1988.09 1126 1952 1162.09Z" fill="#203864"/><rect x="1736" y="1017" width="307" height="70.9998" fill="#70AD47"/><path d="M1839.03 1093 1839.03 1590.68 1814.97 1590.68 1814.97 1093ZM1863.09 1590.68 1827 1626.78 1790.91 1590.68 1827 1554.59Z" fill="#203864"/><rect x="1736" y="1627" width="307" height="71.0001" fill="#70AD47"/><path d="M1840.58 1024.96C1828.17 1024.96 1817.22 1028.61 1807.73 1035.91 1798.24 1043.21 1790.03 1052.88 1783.1 1064.93 1776.16 1076.97 1770.87 1091.03 1767.22 1107.09 1763.57 1123.15 1761.74 1139.94 1761.74 1157.46L1761.74 1561.51C1761.74 1578.3 1763.57 1594.36 1767.22 1609.69 1770.87 1625.02 1775.98 1638.71 1782.55 1650.75 1789.12 1662.8 1797.33 1672.47 1807.19 1679.77 1817.04 1687.07 1828.17 1690.72 1840.58 1690.72L1936.94 1690.72C1949.35 1690.72 1960.49 1687.07 1970.34 1679.77 1980.2 1672.47 1988.59 1662.8 1995.53 1650.75 2002.46 1638.71 2007.75 1625.02 2011.4 1609.69 2015.05 1594.36 2016.88 1578.3 2016.88 1561.51L2016.88 1157.46C2016.88 1139.94 2015.05 1123.15 2011.4 1107.09 2007.75 1091.03 2002.46 1076.97 1995.53 1064.93 1988.59 1052.88 1980.2 1043.21 1970.34 1035.91 1960.49 1028.61 1949.35 1024.96 1936.94 1024.96ZM1768.31 914.365 2010.31 914.365C2035.13 914.365 2057.76 920.57 2078.2 932.98 2098.64 945.39 2116.34 962.545 2131.31 984.445 2146.27 1006.35 2157.77 1032.08 2165.8 1061.64 2173.83 1091.21 2177.84 1123.15 2177.84 1157.46L2177.84 1561.51C2177.84 1595.09 2174.01 1626.3 2166.35 1655.13 2158.68 1683.97 2147.55 1709.15 2132.95 1730.69 2118.35 1752.22 2100.65 1769.01 2079.84 1781.06 2059.04 1793.1 2035.86 1799.13 2010.31 1799.13L1988.41 1799.13 2040.97 1915.2 1899.71 1915.2 1847.15 1799.13 1768.31 1799.13C1742.76 1799.13 1719.59 1792.92 1698.78 1780.51 1677.98 1768.1 1660.27 1751.13 1645.67 1729.59 1631.07 1708.06 1619.58 1682.87 1611.18 1654.04 1602.79 1625.2 1598.59 1594.36 1598.59 1561.51L1598.59 1157.46C1598.59 1123.15 1602.79 1091.21 1611.18 1061.64 1619.58 1032.08 1631.26 1006.35 1646.22 984.445 1661.19 962.545 1679.07 945.39 1699.88 932.98 1720.68 920.57 1743.49 914.365 1768.31 914.365Z" stroke="#F2F2F2" stroke-width="14" stroke-linejoin="round" stroke-miterlimit="10" fill="#44546A" fill-rule="evenodd"/><text fill="#000000" fill-opacity="0" font-family="Arial,Arial_MSFontService,sans-serif" font-size="1000.83" x="1598.59" y="1790.09">Q</text></g></svg>